<svg width="166" height="24" fill="none" xmlns="http://www.w3.org/2000/svg"><g clip-path="url(#clip0)" fill="#000"><path d="M6.139 12.714l9.355-9.346a3.373 3.373 0 014.758 0l.727.727 1.457-1.458-.727-.73a5.438 5.438 0 00-7.682 0l-9.35 9.35 1.462 1.457z"/><path d="M18.628 6.445l-1.457-1.457-9.36 9.36A3.37 3.37 0 113.049 9.58l8.074-8.075L9.665.048 1.59 8.122a5.432 5.432 0 107.68 7.683l9.358-9.36zm9.316 1.677a5.441 5.441 0 00-7.682 0l-9.36 9.36 1.458 1.457 9.36-9.36a3.37 3.37 0 015.493 3.677c-.171.41-.422.78-.74 1.091l-8.064 8.074 1.461 1.458 8.074-8.074a5.438 5.438 0 000-7.683z"/><path d="M23.396 11.213l-9.359 9.356a3.376 3.376 0 01-4.768 0l-.727-.73-1.457 1.457.727.73a5.441 5.441 0 007.683 0l9.359-9.362-1.458-1.45zM38.08 14.48c.096.555.399 1.053.847 1.395a2.842 2.842 0 001.756.5 2.503 2.503 0 001.66-.494 1.623 1.623 0 00.585-1.301 1.328 1.328 0 00-.156-.664 1.413 1.413 0 00-.439-.462 2.782 2.782 0 00-.69-.332l-.923-.279-.88-.239a8.11 8.11 0 01-1.418-.52 4.382 4.382 0 01-1.072-.718 2.765 2.765 0 01-.664-.946 3.097 3.097 0 01-.232-1.245c-.005-.473.097-.94.298-1.368.194-.416.482-.782.84-1.07a3.983 3.983 0 011.328-.7 5.488 5.488 0 011.747-.255c1.22 0 2.185.287 2.898.863a3.41 3.41 0 011.255 2.324l-1.992.163a1.992 1.992 0 00-.724-1.152 2.467 2.467 0 00-1.517-.412 2.181 2.181 0 00-1.418.418 1.328 1.328 0 00-.51 1.08c-.01.22.043.44.148.633.107.18.254.332.429.445.213.139.443.25.684.332.269.1.574.206.913.316l.843.262c.524.166 1 .339 1.424.518.391.166.755.39 1.08.664.292.247.525.557.683.906.171.412.252.856.24 1.302a3.423 3.423 0 01-.333 1.507 3.32 3.32 0 01-.923 1.162 4.36 4.36 0 01-1.41.744 5.822 5.822 0 01-1.803.262 5.17 5.17 0 01-3.048-.857 3.723 3.723 0 01-1.517-2.606l2.011-.176zm15.422-8.665a6.374 6.374 0 012.44.451 5.341 5.341 0 011.876 1.269c.53.563.939 1.227 1.205 1.952a7.02 7.02 0 01.428 2.49 6.745 6.745 0 01-.455 2.53 5.712 5.712 0 01-1.291 1.952l1.58 1.85v.573h-1.992l-1.105-1.35c-.4.19-.82.34-1.252.444-.466.1-.941.149-1.418.146a6.386 6.386 0 01-2.463-.478 5.311 5.311 0 01-1.862-1.271 5.645 5.645 0 01-1.186-1.943 7.042 7.042 0 01-.421-2.463 7.096 7.096 0 01.421-2.48 5.608 5.608 0 011.195-1.946 5.406 5.406 0 011.87-1.275 6.182 6.182 0 012.43-.451zm-.017 1.78a3.702 3.702 0 00-1.59.331 3.374 3.374 0 00-1.185.913 4.095 4.095 0 00-.744 1.382 5.68 5.68 0 00-.252 1.733 5.58 5.58 0 00.262 1.746c.16.509.415.983.75 1.398.322.394.726.711 1.185.93a3.652 3.652 0 001.59.331 3.798 3.798 0 001.591-.332 3.351 3.351 0 001.185-.9c.34-.408.594-.88.75-1.387.182-.578.272-1.18.266-1.786a5.647 5.647 0 00-.265-1.76 4.1 4.1 0 00-.75-1.381 3.43 3.43 0 00-1.192-.903 3.768 3.768 0 00-1.6-.316zm13.791 8.847a2.534 2.534 0 001.993-.783c.47-.52.707-1.32.707-2.397V6.044h2.068v7.284a6.5 6.5 0 01-.332 2.198 3.801 3.801 0 01-.94 1.5 3.653 3.653 0 01-1.497.857c-1.303.36-2.68.36-3.984 0a3.629 3.629 0 01-1.49-.856 3.837 3.837 0 01-.94-1.501 6.508 6.508 0 01-.332-2.198V6.044h2.075v7.218c0 1.075.237 1.874.71 2.397a2.528 2.528 0 001.963.783zm6.84.87l4.2-11.255h3.114l4.153 11.255v.564h-2.042l-1.188-3.38H77.23l-1.202 3.38h-1.926l.014-.564zm3.738-4.582h3.908l-.644-1.879c-.253-.733-.455-1.328-.611-1.796a93.967 93.967 0 00-.412-1.218h-.508l-.2.56c-.066.187-.139.396-.222.625-.083.23-.172.495-.272.794-.1.298-.219.64-.362 1.035l-.677 1.88zm19.33 5.146H95.19l-3.609-4.648h-1.328v4.649H88.21V6.043h3.841c.576-.001 1.15.04 1.72.123.53.077 1.034.272 1.478.57.933.616 1.4 1.544 1.4 2.783.01.48-.072.958-.242 1.408a3.14 3.14 0 01-.634 1.022c-.263.28-.571.51-.913.684a4.732 4.732 0 01-1.079.395l3.403 4.283v.564zm-6.936-6.427h1.796a3.47 3.47 0 001.869-.432 1.55 1.55 0 00.684-1.414 1.455 1.455 0 00-.694-1.388 3.785 3.785 0 00-1.86-.391h-1.795v3.625zm9.571-5.405h7.663v1.813h-5.644v3.097h5.239v1.78h-5.229v3.32h5.75v1.823h-7.779V6.043zm12.361 8.436a2.23 2.23 0 00.846 1.395 2.85 2.85 0 001.756.5 2.501 2.501 0 001.66-.494 1.621 1.621 0 00.585-1.301 1.334 1.334 0 00-.156-.664 1.407 1.407 0 00-.439-.462 2.772 2.772 0 00-.69-.332l-.923-.279-.89-.245a8.079 8.079 0 01-1.417-.522 4.381 4.381 0 01-1.073-.717 2.77 2.77 0 01-.664-.946 3.35 3.35 0 01.067-2.613 3.03 3.03 0 01.84-1.069 3.977 3.977 0 011.327-.7 5.495 5.495 0 011.747-.256c1.219 0 2.187.288 2.902.863a3.418 3.418 0 011.251 2.324l-1.992.163a1.99 1.99 0 00-.717-1.152 2.46 2.46 0 00-1.517-.412 2.183 2.183 0 00-1.418.419 1.325 1.325 0 00-.508 1.079c-.009.22.041.44.146.634.107.179.254.331.429.445.213.138.443.25.683.332.269.1.575.205.917.315l.84.262c.527.166 1.001.339 1.424.518.391.166.755.39 1.079.664.292.248.526.557.684.907.171.412.252.855.239 1.301a3.416 3.416 0 01-.332 1.507c-.215.453-.531.85-.923 1.162-.421.33-.9.58-1.411.737a5.845 5.845 0 01-1.806.263 5.176 5.176 0 01-3.048-.857 3.719 3.719 0 01-1.51-2.593l2.012-.176zm9.966-8.436h4.316a6.218 6.218 0 012.019.282c.496.153.95.418 1.328.774.332.323.58.722.723 1.162.153.465.228.951.223 1.44a3.89 3.89 0 01-.306 1.608 2.892 2.892 0 01-.879 1.128 4.02 4.02 0 01-1.401.664 7.121 7.121 0 01-1.863.223h-2.091v4.552h-2.062l-.007-11.833zm2.062 5.505h1.975a5.15 5.15 0 00.996-.09c.28-.052.547-.155.79-.302a1.48 1.48 0 00.528-.571c.134-.275.199-.578.19-.883a1.97 1.97 0 00-.19-.907 1.469 1.469 0 00-.521-.58 2.259 2.259 0 00-.78-.303 5.076 5.076 0 00-.996-.09h-2.009l.017 3.726zm7.118 5.763l4.203-11.255h3.114l4.15 11.255v.564h-2.025l-1.185-3.38h-5.143l-1.185 3.38h-1.929v-.564zm3.742-4.582h3.904l-.644-1.879c-.252-.733-.455-1.328-.608-1.796l-.411-1.218h-.525l-.199.56c-.067.187-.14.396-.223.625-.083.23-.172.495-.272.794-.099.298-.219.64-.362 1.035l-.66 1.88zm20.281 2.016c-.187.463-.432.9-.73 1.301a4.926 4.926 0 01-1.099 1.07 5.201 5.201 0 01-1.491.723 6.32 6.32 0 01-1.885.266 6.015 6.015 0 01-2.404-.462 5.377 5.377 0 01-1.843-1.275 5.665 5.665 0 01-1.178-1.945 7.059 7.059 0 01-.415-2.447 7.036 7.036 0 01.415-2.447 5.644 5.644 0 011.185-1.952 5.484 5.484 0 011.853-1.295 5.992 5.992 0 012.413-.468 5.586 5.586 0 013.254.906 4.9 4.9 0 011.856 2.404l-2.095.412a3.457 3.457 0 00-1.195-1.425 3.235 3.235 0 00-1.853-.518 3.461 3.461 0 00-1.557.332 3.37 3.37 0 00-1.152.927c-.326.415-.57.89-.717 1.398a5.748 5.748 0 00-.249 1.723 5.687 5.687 0 00.255 1.733c.157.502.408.97.741 1.377.325.383.729.69 1.185.9a3.651 3.651 0 001.584.332 3.087 3.087 0 001.902-.561 3.871 3.871 0 001.162-1.368l2.058.359zm2.786-8.702h7.663v1.813h-5.644v3.097h5.248v1.78h-5.239v3.32h5.751v1.823h-7.779V6.043z"/></g><defs><clipPath id="clip0"><path fill="#fff" d="M0 0h166v24H0z"/></clipPath></defs></svg>