<svg width="37" height="30" fill="none" xmlns="http://www.w3.org/2000/svg"><path d="M7.601 15.896l11.585-11.73a4.149 4.149 0 012.946-1.231c1.104 0 2.163.442 2.946 1.232l.9.912 1.805-1.83-.9-.916A6.688 6.688 0 0022.126.34a6.689 6.689 0 00-4.757 1.994L5.793 14.066l1.808 1.83z" fill="#fff"/><path d="M23.067 8.03L21.263 6.2 9.673 17.946a4.145 4.145 0 01-2.95 1.237 4.144 4.144 0 01-2.951-1.24 4.258 4.258 0 01-1.221-2.99c0-1.122.44-2.198 1.223-2.99l9.998-10.134L11.967 0 1.97 10.133a6.821 6.821 0 00-1.49 2.212A6.896 6.896 0 00.446 17.6a6.824 6.824 0 001.465 2.23 6.719 6.719 0 002.2 1.485 6.647 6.647 0 005.183-.029 6.723 6.723 0 002.183-1.51L23.067 8.03zm11.536 2.103a6.693 6.693 0 00-4.756-1.992 6.693 6.693 0 00-4.757 1.992L13.5 21.88l1.806 1.83 11.589-11.746a4.156 4.156 0 012.136-1.155 4.12 4.12 0 012.41.241 4.18 4.18 0 011.87 1.557 4.27 4.27 0 01.704 2.348 4.217 4.217 0 01-.317 1.623 4.19 4.19 0 01-.916 1.369L22.796 28.08l1.809 1.83 9.998-10.134a6.872 6.872 0 001.968-4.82 6.872 6.872 0 00-1.968-4.822z" fill="#fff"/><path d="M28.971 14.013l-11.59 11.741a4.153 4.153 0 01-2.951 1.237 4.153 4.153 0 01-2.952-1.237l-.9-.916-1.805 1.829.9.916a6.692 6.692 0 004.757 1.993 6.693 6.693 0 004.757-1.992l11.589-11.75-1.805-1.821z" fill="#fff"/></svg>