<svg width="205" height="30" fill="none" xmlns="http://www.w3.org/2000/svg"><g clip-path="url(#clip0)" fill="#E9E9E9"><path d="M7.58 15.892L19.136 4.21a4.14 4.14 0 012.937-1.227c1.101 0 2.158.44 2.938 1.227l.898.909 1.8-1.822-.898-.913A6.675 6.675 0 0022.066.398a6.675 6.675 0 00-4.743 1.986L5.777 14.07l1.804 1.822z"/><path d="M23.005 8.057l-1.8-1.822-11.558 11.7a4.136 4.136 0 01-2.943 1.232 4.136 4.136 0 01-2.942-1.235 4.238 4.238 0 01-1.218-2.98c0-1.116.44-2.188 1.22-2.977l9.971-10.093-1.8-1.822-9.971 10.093a6.792 6.792 0 00-1.487 2.203 6.86 6.86 0 00-.031 5.232 6.81 6.81 0 001.46 2.221 6.703 6.703 0 002.195 1.48 6.637 6.637 0 005.169-.029 6.706 6.706 0 002.177-1.504L23.005 8.057zm11.505 2.096a6.679 6.679 0 00-4.744-1.984 6.679 6.679 0 00-4.744 1.984L13.464 21.852l1.8 1.822 11.558-11.7a4.146 4.146 0 012.13-1.15 4.115 4.115 0 012.404.241c.76.319 1.409.859 1.866 1.55.457.693.701 1.507.701 2.34a4.193 4.193 0 01-.317 1.615 4.153 4.153 0 01-.913 1.364l-9.958 10.093 1.803 1.822 9.972-10.093a6.84 6.84 0 001.962-4.802 6.84 6.84 0 00-1.962-4.801z"/><path d="M28.893 14.017L17.335 25.71a4.145 4.145 0 01-2.944 1.232 4.145 4.145 0 01-2.944-1.232l-.898-.913-1.8 1.822.898.913a6.679 6.679 0 004.744 1.984 6.679 6.679 0 004.744-1.984L30.693 15.83l-1.8-1.813zM47.027 18.1a2.79 2.79 0 001.045 1.743 3.479 3.479 0 002.17.627 3.065 3.065 0 002.05-.619 2.05 2.05 0 00.722-1.627 1.676 1.676 0 00-.194-.83 1.758 1.758 0 00-.54-.576 3.423 3.423 0 00-.854-.415l-1.14-.349-1.086-.299a9.936 9.936 0 01-1.75-.651 5.409 5.409 0 01-1.325-.897 3.458 3.458 0 01-.82-1.183 3.915 3.915 0 01-.287-1.556 3.96 3.96 0 01.369-1.71 3.74 3.74 0 011.037-1.336 4.9 4.9 0 011.64-.875 6.702 6.702 0 012.157-.32c1.506 0 2.7.36 3.58 1.079A4.25 4.25 0 0154.863 9.6a4.3 4.3 0 01.486 1.611l-2.46.203a2.494 2.494 0 00-.894-1.44 3.019 3.019 0 00-1.873-.514 2.67 2.67 0 00-1.751.523 1.658 1.658 0 00-.632 1.348c-.01.277.054.55.185.793.132.224.313.414.529.556.263.174.547.313.844.415.332.125.71.257 1.128.394l1.041.328c.648.208 1.234.424 1.76.648.482.207.931.487 1.332.83.36.309.65.696.844 1.132.211.516.312 1.07.296 1.627a4.322 4.322 0 01-.41 1.884 4.141 4.141 0 01-1.14 1.453 5.36 5.36 0 01-1.743.93 7.112 7.112 0 01-2.226.327 6.328 6.328 0 01-3.764-1.07 4.633 4.633 0 01-1.277-1.428 4.692 4.692 0 01-.597-1.83l2.485-.22zM66.071 7.268a7.788 7.788 0 013.014.565 6.594 6.594 0 012.317 1.585 7.173 7.173 0 011.488 2.44c.36.997.54 2.051.529 3.113a8.526 8.526 0 01-.562 3.162 7.15 7.15 0 01-1.595 2.44l1.952 2.312v.718h-2.46l-1.366-1.69a7.78 7.78 0 01-1.545.557 8.07 8.07 0 01-1.751.183 7.804 7.804 0 01-3.042-.598 6.56 6.56 0 01-2.3-1.59 7.071 7.071 0 01-1.464-2.427 8.898 8.898 0 01-.52-3.08 8.967 8.967 0 01.52-3.1 7.023 7.023 0 011.476-2.432 6.673 6.673 0 012.308-1.593 7.553 7.553 0 013.002-.565zm-.02 2.225a4.525 4.525 0 00-1.964.415 4.173 4.173 0 00-1.464 1.141 5.137 5.137 0 00-.918 1.726 7.18 7.18 0 00-.312 2.167c-.007.74.103 1.477.324 2.183.199.636.513 1.228.927 1.747.397.492.897.89 1.464 1.162a4.465 4.465 0 001.963.415 4.643 4.643 0 001.964-.415 4.143 4.143 0 001.464-1.125c.419-.51.734-1.1.927-1.735a7.3 7.3 0 00.328-2.232 7.132 7.132 0 00-.328-2.2 5.145 5.145 0 00-.927-1.726 4.24 4.24 0 00-1.472-1.129 4.605 4.605 0 00-1.976-.394zm17.031 11.06a3.106 3.106 0 002.46-.98c.583-.65.874-1.649.874-2.996V7.555h2.554v9.105a8.215 8.215 0 01-.41 2.747 4.76 4.76 0 01-1.16 1.876 4.496 4.496 0 01-1.85 1.07 9.115 9.115 0 01-4.92 0 4.47 4.47 0 01-1.84-1.07 4.807 4.807 0 01-1.16-1.876 8.226 8.226 0 01-.41-2.747V7.555h2.562v9.022c0 1.345.292 2.343.877 2.996.31.33.688.59 1.106.759.418.169.868.244 1.317.22zm8.446 1.087l5.187-14.07h3.846l5.129 14.069v.705h-2.522l-1.467-4.224h-6.327l-1.484 4.224h-2.378l.016-.705zm4.617-5.727h4.826l-.796-2.349a274.9 274.9 0 01-.754-2.245c-.193-.585-.357-1.083-.509-1.523h-.627l-.246.701c-.082.233-.172.494-.275.78-.102.287-.213.619-.336.992-.123.374-.27.801-.447 1.295l-.836 2.349zm23.87 6.432h-2.46l-4.456-5.81h-1.64v5.81h-2.526V7.555h4.744c.71-.001 1.42.05 2.123.153.654.096 1.278.34 1.825.714 1.153.77 1.73 1.928 1.73 3.478.012.6-.09 1.197-.299 1.76a3.93 3.93 0 01-.783 1.278 4.115 4.115 0 01-1.128.855 5.81 5.81 0 01-1.332.493l4.202 5.354v.705zm-8.565-8.034h2.218a4.242 4.242 0 002.309-.54 1.94 1.94 0 00.844-1.767 1.815 1.815 0 00-.857-1.735 4.625 4.625 0 00-2.296-.49h-2.218v4.532zm11.821-6.756h9.462V9.82h-6.97v3.872h6.47v2.224h-6.457v4.15h7.101v2.278h-9.606V7.555zM138.535 18.1a2.792 2.792 0 001.045 1.743 3.489 3.489 0 002.169.627 3.064 3.064 0 002.05-.619 2.052 2.052 0 00.722-1.627 1.674 1.674 0 00-.193-.83 1.765 1.765 0 00-.541-.576 3.42 3.42 0 00-.853-.415l-1.14-.349-1.098-.307a9.91 9.91 0 01-1.751-.652 5.396 5.396 0 01-1.324-.896 3.453 3.453 0 01-.82-1.183 4.24 4.24 0 01.082-3.266 3.76 3.76 0 011.037-1.336 4.897 4.897 0 011.64-.876 6.698 6.698 0 012.156-.32c1.507 0 2.701.36 3.584 1.08.436.355.797.796 1.062 1.294.265.5.43 1.047.484 1.61l-2.46.204a2.495 2.495 0 00-.886-1.44 3.01 3.01 0 00-1.874-.515 2.668 2.668 0 00-1.75.523 1.65 1.65 0 00-.472.6c-.109.233-.162.49-.156.749-.011.276.051.55.181.793.132.224.313.414.529.556.263.173.547.313.844.415.332.124.71.257 1.132.394l1.037.328c.651.207 1.237.423 1.759.647a5.24 5.24 0 011.333.83c.361.31.649.697.844 1.133.211.515.312 1.07.295 1.627a4.314 4.314 0 01-.41 1.884 4.094 4.094 0 01-1.139 1.453 5.387 5.387 0 01-1.743.92 7.143 7.143 0 01-2.23.329 6.334 6.334 0 01-3.764-1.07 4.633 4.633 0 01-1.27-1.423 4.7 4.7 0 01-.596-1.82l2.485-.219zm12.308-10.545h5.33a7.588 7.588 0 012.493.353 4.187 4.187 0 011.64.967c.41.403.717.902.894 1.452.188.581.28 1.19.274 1.801a4.885 4.885 0 01-.377 2.009 3.603 3.603 0 01-1.086 1.41 4.923 4.923 0 01-1.731.83 8.677 8.677 0 01-2.3.279h-2.583v5.69h-2.546l-.008-14.791zm2.546 6.88h2.44a6.3 6.3 0 001.23-.112 2.9 2.9 0 00.976-.377c.276-.175.501-.421.651-.714.166-.343.246-.722.234-1.104a2.486 2.486 0 00-.234-1.133 1.833 1.833 0 00-.643-.726 2.764 2.764 0 00-.964-.378 6.19 6.19 0 00-1.23-.112h-2.48l.02 4.656zm8.791 7.205l5.19-14.069h3.846l5.125 14.069v.705h-2.501l-1.464-4.224h-6.351l-1.463 4.224h-2.382v-.705zm4.62-5.727h4.822l-.795-2.349c-.312-.917-.562-1.66-.751-2.245l-.508-1.523h-.648l-.246.701c-.082.233-.172.494-.275.78a45 45 0 00-.336.992c-.123.374-.271.801-.447 1.295l-.816 2.349zm25.047 2.519a7.369 7.369 0 01-.902 1.627 6.147 6.147 0 01-1.357 1.336c-.562.4-1.183.705-1.841.905a7.75 7.75 0 01-2.329.332 7.35 7.35 0 01-2.968-.577 6.64 6.64 0 01-2.276-1.594 7.112 7.112 0 01-1.455-2.432 8.943 8.943 0 01-.513-3.058 8.919 8.919 0 01.513-3.059 7.082 7.082 0 011.464-2.44 6.77 6.77 0 012.287-1.618 7.328 7.328 0 012.981-.586 6.835 6.835 0 014.018 1.133 6.113 6.113 0 012.292 3.005l-2.587.515a4.31 4.31 0 00-1.476-1.78 3.958 3.958 0 00-2.288-.648 4.235 4.235 0 00-1.923.415 4.162 4.162 0 00-1.422 1.158 5.184 5.184 0 00-.886 1.747 7.302 7.302 0 00-.307 2.154c-.007.734.1 1.465.315 2.166.193.628.503 1.213.915 1.722.401.479.9.863 1.463 1.125a4.467 4.467 0 001.956.415 3.778 3.778 0 002.349-.701 4.818 4.818 0 001.435-1.71l2.542.448zm3.44-10.877h9.463V9.82h-6.97v3.872h6.482v2.224h-6.47v4.15h7.101v2.278h-9.606V7.555z"/></g><defs><clipPath id="clip0"><path fill="#fff" d="M0 0h205v30H0z"/></clipPath></defs></svg>